<svg width="19198" height="10740" xmlns="http://www.w3.org/2000/svg" xmlns:xlink="http://www.w3.org/1999/xlink" xml:space="preserve" overflow="hidden"><defs><filter id="fx0" x="-10%" y="-10%" width="120%" height="120%" filterUnits="userSpaceOnUse" primitiveUnits="userSpaceOnUse"><feComponentTransfer color-interpolation-filters="sRGB"><feFuncR type="discrete" tableValues="0.85098 0.85098"/><feFuncG type="discrete" tableValues="0.85098 0.85098"/><feFuncB type="discrete" tableValues="0.85098 0.85098"/><feFuncA type="linear" slope="0.439216" intercept="0"/></feComponentTransfer><feGaussianBlur stdDeviation="6.87732 6.87584"/></filter><filter id="fx1" x="-10%" y="-10%" width="120%" height="120%" filterUnits="userSpaceOnUse" primitiveUnits="userSpaceOnUse"><feComponentTransfer color-interpolation-filters="sRGB"><feFuncR type="discrete" tableValues="0.85098 0.85098"/><feFuncG type="discrete" tableValues="0.85098 0.85098"/><feFuncB type="discrete" tableValues="0.85098 0.85098"/><feFuncA type="linear" slope="0.439216" intercept="0"/></feComponentTransfer><feGaussianBlur stdDeviation="6.87732 6.87584"/></filter><filter id="fx2" x="-10%" y="-10%" width="120%" height="120%" filterUnits="userSpaceOnUse" primitiveUnits="userSpaceOnUse"><feComponentTransfer color-interpolation-filters="sRGB"><feFuncR type="discrete" tableValues="0.85098 0.85098"/><feFuncG type="discrete" tableValues="0.85098 0.85098"/><feFuncB type="discrete" tableValues="0.85098 0.85098"/><feFuncA type="linear" slope="0.439216" intercept="0"/></feComponentTransfer><feGaussianBlur stdDeviation="6.87732 6.87584"/></filter><clipPath id="clip3"><rect x="-1799" y="237" width="19198" height="10740"/></clipPath><clipPath id="clip4"><rect x="0" y="0" width="1482" height="2043"/></clipPath><clipPath id="clip5"><rect x="0" y="0" width="1482" height="2043"/></clipPath><clipPath id="clip6"><rect x="0" y="0" width="1482" height="2043"/></clipPath></defs><g clip-path="url(#clip3)" transform="translate(1799 -237)"><text font-family="Microsoft YaHei,Microsoft YaHei_MSFontService,sans-serif" font-weight="700" font-size="440" transform="matrix(1 0 0 1 4728.14 793)">SOME Evaluation Workflow</text><g filter="url(#fx0)" transform="matrix(3.99865 0 0 3.99951 -1800 1402)"><g clip-path="url(#clip4)"><path d="M20.9366 114.623C20.9366 62.9822 62.8091 21.1188 114.461 21.1188L1367.58 21.1188C1419.23 21.1188 1461.11 62.9822 1461.11 114.623L1461.11 1928.38C1461.11 1980.02 1419.23 2021.88 1367.58 2021.88L114.461 2021.88C62.8091 2021.88 20.9366 1980.02 20.9366 1928.38Z" fill="#FFFFFF" fill-rule="evenodd"/></g></g><path d="M-1637 1966.08C-1637 1765.56-1474.44 1603-1273.92 1603L3590.92 1603C3791.44 1603 3954 1765.56 3954 1966.08L3954 9008.92C3954 9209.44 3791.44 9372 3590.92 9372L-1273.92 9372C-1474.44 9372-1637 9209.44-1637 9008.92Z" fill="#FFFFFF" fill-rule="evenodd"/><path d="M-1256.64 1603 3573.64 1603C3783.71 1603 3954 1773.29 3954 1983.36L3954 2655-1637 2655-1637 1983.36C-1637 1773.29-1466.71 1603-1256.64 1603Z" fill="#2663EB" fill-rule="evenodd"/><text fill="#FFFFFF" font-family="Segoe UI,Segoe UI_MSFontService,sans-serif" font-weight="700" font-size="183" transform="matrix(1 0 0 1 -486.963 1995)">RUN FIRST</text><text fill="#FFFFFF" font-family="Segoe UI,Segoe UI_MSFontService,sans-serif" font-weight="700" font-size="275" transform="matrix(1 0 0 1 -486.963 2363)">Objective Metrics</text><path d="M-1337 2123C-1337 1972.23-1214.55 1850-1063.5 1850-912.45 1850-790 1972.23-790 2123-790 2273.77-912.45 2396-1063.5 2396-1214.55 2396-1337 2273.77-1337 2123Z" fill="#FFFFFF" fill-rule="evenodd" fill-opacity="0.34902"/><text fill="#FFFFFF" font-family="Microsoft YaHei,Microsoft YaHei_MSFontService,sans-serif" font-weight="700" font-size="275" transform="matrix(1 0 0 1 -1148.33 2221)">1</text><text fill="#7F7F7F" font-family="Segoe UI Variable Display Semibold,Segoe UI Variable Display Semibold_MSFontService,sans-serif" font-weight="600" font-size="202" transform="matrix(1 0 0 1 -1112.94 3113)">INPUT</text><text fill="#7F7F7F" font-family="Segoe UI Variable Display Semibold,Segoe UI Variable Display Semibold_MSFontService,sans-serif" font-weight="600" font-size="202" transform="matrix(1 0 0 1 -538.876 3113)"> </text><path d="M-1145.5 3439.7C-1145.5 3364.48-1084.52 3303.5-1009.3 3303.5L3327.3 3303.5C3402.52 3303.5 3463.5 3364.48 3463.5 3439.7L3463.5 3948.3C3463.5 4023.52 3402.52 4084.5 3327.3 4084.5L-1009.3 4084.5C-1084.52 4084.5-1145.5 4023.52-1145.5 3948.3Z" stroke="#A6CAEC" stroke-width="17.1875" stroke-miterlimit="8" fill="#EFF6FF" fill-rule="evenodd"/><text fill="#404040" font-family="Segoe UI,Segoe UI_MSFontService,sans-serif" font-weight="400" font-size="220" transform="matrix(1 0 0 1 -958.804 3617)">Waymo interaction data</text><text fill="#262626" font-family="Consolas,Consolas_MSFontService,sans-serif" font-weight="700" font-size="183" transform="matrix(1 0 0 1 -958.804 3935)">waymo_data</text><text fill="#262626" font-family="Consolas,Consolas_MSFontService,sans-serif" font-weight="700" font-size="183" transform="matrix(1 0 0 1 150.363 3935)">index.csv</text><text fill="#7F7F7F" font-family="Segoe UI Variable Display Semibold,Segoe UI Variable Display Semibold_MSFontService,sans-serif" font-weight="600" font-size="202" transform="matrix(1 0 0 1 -1112.94 4482)">RUN</text><text fill="#7F7F7F" font-family="Segoe UI Variable Display Semibold,Segoe UI Variable Display Semibold_MSFontService,sans-serif" font-weight="600" font-size="202" transform="matrix(1 0 0 1 -695.282 4482)"> </text><path d="M-1146 4786.89C-1146 4723.44-1094.56 4672-1031.11 4672L3348.11 4672C3411.56 4672 3463 4723.44 3463 4786.89L3463 5101.11C3463 5164.56 3411.56 5216 3348.11 5216L-1031.11 5216C-1094.56 5216-1146 5164.56-1146 5101.11Z" fill="#F1F5F9" fill-rule="evenodd"/><text fill="#262626" font-family="Consolas,Consolas_MSFontService,sans-serif" font-weight="700" font-size="183" transform="matrix(1 0 0 1 -889.862 5006)">1</text><text fill="#262626" font-family="Consolas,Consolas_MSFontService,sans-serif" font-weight="700" font-size="183" transform="matrix(1 0 0 1 -789.029 5006)">-</text><text fill="#262626" font-family="Consolas,Consolas_MSFontService,sans-serif" font-weight="700" font-size="183" transform="matrix(1 0 0 1 -688.195 5006)">objective_metrics/metric.py</text><text fill="#7F7F7F" font-family="Segoe UI Variable Display Semibold,Segoe UI Variable Display Semibold_MSFontService,sans-serif" font-weight="600" font-size="202" transform="matrix(1 0 0 1 -1112.94 5674)">PROCESS</text><text fill="#7F7F7F" font-family="Segoe UI Variable Display Semibold,Segoe UI Variable Display Semibold_MSFontService,sans-serif" font-weight="600" font-size="202" transform="matrix(1 0 0 1 -240.96 5674)"> </text><text fill="#262626" font-family="Segoe UI Variable Display Semibold,Segoe UI Variable Display Semibold_MSFontService,sans-serif" font-weight="600" font-size="202" transform="matrix(1 0 0 1 -760.92 6104)">Extract and standardize 10 metrics</text><text fill="#262626" font-family="Segoe UI Variable Display Semibold,Segoe UI Variable Display Semibold_MSFontService,sans-serif" font-weight="600" font-size="202" transform="matrix(1 0 0 1 2347.15 6104)"> </text><text fill="#677A8F" font-family="Segoe UI Variable Display Semibold,Segoe UI Variable Display Semibold_MSFontService,sans-serif" font-weight="600" font-size="183" transform="matrix(1 0 0 1 -760.92 6429)">Safety: TTC, PET</text><text fill="#677A8F" font-family="Segoe UI Variable Display Semibold,Segoe UI Variable Display Semibold_MSFontService,sans-serif" font-weight="600" font-size="183" transform="matrix(1 0 0 1 558.507 6429)"> </text><text fill="#677A8F" font-family="Segoe UI Variable Display Semibold,Segoe UI Variable Display Semibold_MSFontService,sans-serif" font-weight="600" font-size="183" transform="matrix(1 0 0 1 -760.92 6693)">Comfort: </text><text fill="#677A8F" font-family="Segoe UI Variable Display Semibold,Segoe UI Variable Display Semibold_MSFontService,sans-serif" font-weight="600" font-size="183" transform="matrix(1 0 0 1 36.5801 6693)">a_p</text><text fill="#677A8F" font-family="Segoe UI Variable Display Semibold,Segoe UI Variable Display Semibold_MSFontService,sans-serif" font-weight="600" font-size="183" transform="matrix(1 0 0 1 319.028 6693)">, </text><text fill="#677A8F" font-family="Segoe UI Variable Display Semibold,Segoe UI Variable Display Semibold_MSFontService,sans-serif" font-weight="600" font-size="183" transform="matrix(1 0 0 1 404.393 6693)">a_l</text><text fill="#677A8F" font-family="Segoe UI Variable Display Semibold,Segoe UI Variable Display Semibold_MSFontService,sans-serif" font-weight="600" font-size="183" transform="matrix(1 0 0 1 622.674 6693)">, jerk, </text><text fill="#677A8F" font-family="Segoe UI Variable Display Semibold,Segoe UI Variable Display Semibold_MSFontService,sans-serif" font-weight="600" font-size="183" transform="matrix(1 0 0 1 1104.5 6693)">yaw_rate</text><text fill="#677A8F" font-family="Segoe UI Variable Display Semibold,Segoe UI Variable Display Semibold_MSFontService,sans-serif" font-weight="600" font-size="183" transform="matrix(1 0 0 1 1844.13 6693)"> </text><text fill="#677A8F" font-family="Segoe UI Variable Display Semibold,Segoe UI Variable Display Semibold_MSFontService,sans-serif" font-weight="600" font-size="183" transform="matrix(1 0 0 1 -760.92 6957)">Efficiency: </text><text fill="#677A8F" font-family="Segoe UI Variable Display Semibold,Segoe UI Variable Display Semibold_MSFontService,sans-serif" font-weight="600" font-size="183" transform="matrix(1 0 0 1 129.393 6957)">task_time</text><text fill="#677A8F" font-family="Segoe UI Variable Display Semibold,Segoe UI Variable Display Semibold_MSFontService,sans-serif" font-weight="600" font-size="183" transform="matrix(1 0 0 1 926.32 6957)">, </text><text fill="#677A8F" font-family="Segoe UI Variable Display Semibold,Segoe UI Variable Display Semibold_MSFontService,sans-serif" font-weight="600" font-size="183" transform="matrix(1 0 0 1 1011.68 6957)">avg_delay</text><text fill="#677A8F" font-family="Segoe UI Variable Display Semibold,Segoe UI Variable Display Semibold_MSFontService,sans-serif" font-weight="600" font-size="183" transform="matrix(1 0 0 1 1832.67 6957)"> </text><text fill="#677A8F" font-family="Segoe UI Variable Display Semibold,Segoe UI Variable Display Semibold_MSFontService,sans-serif" font-weight="600" font-size="183" transform="matrix(1 0 0 1 -760.92 7221)">Interaction: IO</text><text fill="#677A8F" font-family="Segoe UI Variable Display Semibold,Segoe UI Variable Display Semibold_MSFontService,sans-serif" font-weight="600" font-size="183" transform="matrix(1 0 0 1 428.455 7221)"> </text><text fill="#677A8F" font-family="Segoe UI Variable Display Semibold,Segoe UI Variable Display Semibold_MSFontService,sans-serif" font-weight="600" font-size="183" transform="matrix(1 0 0 1 -760.92 7485)">Traffic Impact: impact</text><text fill="#677A8F" font-family="Segoe UI Variable Display Semibold,Segoe UI Variable Display Semibold_MSFontService,sans-serif" font-weight="600" font-size="183" transform="matrix(1 0 0 1 1041.48 7485)"> </text><text fill="#7F7F7F" font-family="Segoe UI Variable Display Semibold,Segoe UI Variable Display Semibold_MSFontService,sans-serif" font-weight="600" font-size="202" transform="matrix(1 0 0 1 -1112.94 8048)">OUTPUT</text><text fill="#7F7F7F" font-family="Segoe UI Variable Display Semibold,Segoe UI Variable Display Semibold_MSFontService,sans-serif" font-weight="600" font-size="202" transform="matrix(1 0 0 1 -346.949 8048)"> </text><path d="M-1145.5 8366.7C-1145.5 8291.48-1084.52 8230.5-1009.3 8230.5L3327.3 8230.5C3402.52 8230.5 3463.5 8291.48 3463.5 8366.7L3463.5 8875.3C3463.5 8950.52 3402.52 9011.5 3327.3 9011.5L-1009.3 9011.5C-1084.52 9011.5-1145.5 8950.52-1145.5 8875.3Z" stroke="#4E95D9" stroke-width="17.1875" stroke-miterlimit="8" fill="#DBEAFE" fill-rule="evenodd"/><text fill="#404040" font-family="Segoe UI,Segoe UI_MSFontService,sans-serif" font-weight="700" font-size="220" transform="matrix(1 0 0 1 -958.804 8550)">Objective feature table</text><text fill="#262626" font-family="Consolas,Consolas_MSFontService,sans-serif" font-weight="700" font-size="183" transform="matrix(1 0 0 1 -958.804 8868)">Metrics.csv : index + 10 metrics</text><g filter="url(#fx1)" transform="matrix(3.99865 0 0 3.99951 4837 1402)"><g clip-path="url(#clip5)"><path d="M20.9366 114.623C20.9366 62.9822 62.8091 21.1188 114.461 21.1188L1367.58 21.1188C1419.23 21.1188 1461.11 62.9822 1461.11 114.623L1461.11 1928.38C1461.11 1980.02 1419.23 2021.88 1367.58 2021.88L114.461 2021.88C62.8091 2021.88 20.9366 1980.02 20.9366 1928.38Z" fill="#FFFFFF" fill-rule="evenodd"/></g></g><path d="M5000 1966.08C5000 1765.56 5162.56 1603 5363.08 1603L10227.9 1603C10428.4 1603 10591 1765.56 10591 1966.08L10591 9008.92C10591 9209.44 10428.4 9372 10227.9 9372L5363.08 9372C5162.56 9372 5000 9209.44 5000 9008.92Z" fill="#FFFFFF" fill-rule="evenodd"/><path d="M5380.36 1603 10210.6 1603C10420.7 1603 10591 1773.29 10591 1983.36L10591 2655 5000 2655 5000 1983.36C5000 1773.29 5170.29 1603 5380.36 1603Z" fill="#7C3BED" fill-rule="evenodd"/><text fill="#FFFFFF" font-family="Segoe UI,Segoe UI_MSFontService,sans-serif" font-weight="700" font-size="183" transform="matrix(1 0 0 1 6150.01 1995)">RUN SECOND</text><text fill="#FFFFFF" font-family="Segoe UI,Segoe UI_MSFontService,sans-serif" font-weight="700" font-size="275" transform="matrix(1 0 0 1 6150.01 2363)">LLM</text><text fill="#FFFFFF" font-family="Segoe UI,Segoe UI_MSFontService,sans-serif" font-weight="700" font-size="275" transform="matrix(1 0 0 1 6693.71 2363)">-</text><text fill="#FFFFFF" font-family="Segoe UI,Segoe UI_MSFontService,sans-serif" font-weight="700" font-size="275" transform="matrix(1 0 0 1 6804.86 2363)">Based </text><text fill="#FFFFFF" font-family="Segoe UI,Segoe UI_MSFontService,sans-serif" font-weight="700" font-size="275" transform="matrix(1 0 0 1 7644.75 2363)">Evalaution</text><path d="M5300 2123C5300 1972.23 5422.45 1850 5573.5 1850 5724.55 1850 5847 1972.23 5847 2123 5847 2273.77 5724.55 2396 5573.5 2396 5422.45 2396 5300 2273.77 5300 2123Z" fill="#FFFFFF" fill-rule="evenodd" fill-opacity="0.34902"/><text fill="#FFFFFF" font-family="Microsoft YaHei,Microsoft YaHei_MSFontService,sans-serif" font-weight="700" font-size="275" transform="matrix(1 0 0 1 5488.65 2221)">2</text><text fill="#7F7F7F" font-family="Segoe UI Variable Display Semibold,Segoe UI Variable Display Semibold_MSFontService,sans-serif" font-weight="600" font-size="202" transform="matrix(1 0 0 1 5524.04 3113)">INPUT</text><text fill="#7F7F7F" font-family="Segoe UI Variable Display Semibold,Segoe UI Variable Display Semibold_MSFontService,sans-serif" font-weight="600" font-size="202" transform="matrix(1 0 0 1 6098.1 3113)"> </text><path d="M5491.5 3439.7C5491.5 3364.48 5552.48 3303.5 5627.7 3303.5L9964.3 3303.5C10039.5 3303.5 10100.5 3364.48 10100.5 3439.7L10100.5 3948.3C10100.5 4023.52 10039.5 4084.5 9964.3 4084.5L5627.7 4084.5C5552.48 4084.5 5491.5 4023.52 5491.5 3948.3Z" stroke="#CDACE6" stroke-width="17.1875" stroke-miterlimit="8" fill="#F5F3FF" fill-rule="evenodd"/><text fill="#404040" font-family="Segoe UI,Segoe UI_MSFontService,sans-serif" font-weight="400" font-size="220" transform="matrix(1 0 0 1 5678.17 3617)">Waymo interaction data</text><text fill="#262626" font-family="Consolas,Consolas_MSFontService,sans-serif" font-weight="700" font-size="183" transform="matrix(1 0 0 1 5678.17 3935)">waymo_data</text><text fill="#262626" font-family="Consolas,Consolas_MSFontService,sans-serif" font-weight="700" font-size="183" transform="matrix(1 0 0 1 6787.34 3935)">index.csv</text><text fill="#7F7F7F" font-family="Segoe UI Variable Display Semibold,Segoe UI Variable Display Semibold_MSFontService,sans-serif" font-weight="600" font-size="202" transform="matrix(1 0 0 1 5524.04 4482)">RUN</text><text fill="#7F7F7F" font-family="Segoe UI Variable Display Semibold,Segoe UI Variable Display Semibold_MSFontService,sans-serif" font-weight="600" font-size="202" transform="matrix(1 0 0 1 5941.7 4482)"> </text><path d="M5491 4843.7C5491 4748.87 5567.87 4672 5662.7 4672L9928.3 4672C10023.1 4672 10100 4748.87 10100 4843.7L10100 5313.3C10100 5408.13 10023.1 5485 9928.3 5485L5662.7 5485C5567.87 5485 5491 5408.13 5491 5313.3Z" fill="#F1F5F9" fill-rule="evenodd"/><text fill="#7F7F7F" font-family="Segoe UI Variable Display Semibold,Segoe UI Variable Display Semibold_MSFontService,sans-serif" font-weight="600" font-size="202" transform="matrix(1 0 0 1 5524.04 5904)">PROCESS</text><text fill="#7F7F7F" font-family="Segoe UI Variable Display Semibold,Segoe UI Variable Display Semibold_MSFontService,sans-serif" font-weight="600" font-size="202" transform="matrix(1 0 0 1 6396.02 5904)"> </text><text fill="#7F7F7F" font-family="Segoe UI Variable Display Semibold,Segoe UI Variable Display Semibold_MSFontService,sans-serif" font-weight="600" font-size="202" transform="matrix(1 0 0 1 5524.04 8048)">OUTPUT</text><text fill="#7F7F7F" font-family="Segoe UI Variable Display Semibold,Segoe UI Variable Display Semibold_MSFontService,sans-serif" font-weight="600" font-size="202" transform="matrix(1 0 0 1 6290.03 8048)"> </text><path d="M5491.5 8366.7C5491.5 8291.48 5552.48 8230.5 5627.7 8230.5L9964.3 8230.5C10039.5 8230.5 10100.5 8291.48 10100.5 8366.7L10100.5 8875.3C10100.5 8950.52 10039.5 9011.5 9964.3 9011.5L5627.7 9011.5C5552.48 9011.5 5491.5 8950.52 5491.5 8875.3Z" stroke="#B685DB" stroke-width="17.1875" stroke-miterlimit="8" fill="#EDE9FE" fill-rule="evenodd"/><text fill="#404040" font-family="Segoe UI,Segoe UI_MSFontService,sans-serif" font-weight="700" font-size="220" transform="matrix(1 0 0 1 5678.17 8544)">Subjective label table</text><text fill="#262626" font-family="Consolas,Consolas_MSFontService,sans-serif" font-weight="700" font-size="183" transform="matrix(1 0 0 1 5678.17 8862)">Evaluation_score.csv : index + score</text><text fill="#262626" font-family="Consolas,Consolas_MSFontService,sans-serif" font-weight="700" font-size="183" transform="matrix(1 0 0 1 5747.12 4966)">2</text><text fill="#262626" font-family="Consolas,Consolas_MSFontService,sans-serif" font-weight="700" font-size="183" transform="matrix(1 0 0 1 5847.95 4966)">-</text><text fill="#262626" font-family="Consolas,Consolas_MSFontService,sans-serif" font-weight="700" font-size="183" transform="matrix(1 0 0 1 5948.78 4966)">subjective_evaluation/</text><text fill="#262626" font-family="Consolas,Consolas_MSFontService,sans-serif" font-weight="700" font-size="183" transform="matrix(1 0 0 1 5747.12 5314)">LLM</text><text fill="#262626" font-family="Consolas,Consolas_MSFontService,sans-serif" font-weight="700" font-size="183" transform="matrix(1 0 0 1 6049.62 5314)">-</text><text fill="#262626" font-family="Consolas,Consolas_MSFontService,sans-serif" font-weight="700" font-size="183" transform="matrix(1 0 0 1 6150.45 5314)">based_evaluate.py</text><path d="M5491.5 6167.19C5491.5 6107.16 5540.16 6058.5 5600.19 6058.5L9991.81 6058.5C10051.8 6058.5 10100.5 6107.16 10100.5 6167.19L10100.5 6343.81C10100.5 6403.84 10051.8 6452.5 9991.81 6452.5L5600.19 6452.5C5540.16 6452.5 5491.5 6403.84 5491.5 6343.81Z" stroke="#E1CCF0" stroke-width="17.1875" stroke-miterlimit="8" fill="#FAF5FF" fill-rule="evenodd"/><text fill="#404040" font-family="Segoe UI,Segoe UI_MSFontService,sans-serif" font-weight="700" font-size="202" transform="matrix(1 0 0 1 6533.44 6329)">DLMM prompt generation</text><path d="M5491.5 6795.19C5491.5 6735.16 5540.16 6686.5 5600.19 6686.5L9991.81 6686.5C10051.8 6686.5 10100.5 6735.16 10100.5 6795.19L10100.5 6971.81C10100.5 7031.84 10051.8 7080.5 9991.81 7080.5L5600.19 7080.5C5540.16 7080.5 5491.5 7031.84 5491.5 6971.81Z" stroke="#E1CCF0" stroke-width="17.1875" stroke-miterlimit="8" fill="#FAF5FF" fill-rule="evenodd"/><text fill="#404040" font-family="Segoe UI,Segoe UI_MSFontService,sans-serif" font-weight="700" font-size="202" transform="matrix(1 0 0 1 6481.46 6957)">LLM intelligence evaluation</text><path d="M5491.5 7423.19C5491.5 7363.16 5540.16 7314.5 5600.19 7314.5L9991.81 7314.5C10051.8 7314.5 10100.5 7363.16 10100.5 7423.19L10100.5 7599.81C10100.5 7659.84 10051.8 7708.5 9991.81 7708.5L5600.19 7708.5C5540.16 7708.5 5491.5 7659.84 5491.5 7599.81Z" stroke="#E1CCF0" stroke-width="17.1875" stroke-miterlimit="8" fill="#FAF5FF" fill-rule="evenodd"/><text fill="#404040" font-family="Segoe UI,Segoe UI_MSFontService,sans-serif" font-weight="700" font-size="202" transform="matrix(1 0 0 1 6773.81 7585)">Final score extraction</text><path d="M7872 6488 7748 6663 7624 6488Z" fill="#313D5D" fill-rule="evenodd"/><path d="M7872 7113 7748 7289 7624 7113Z" fill="#313D5D" fill-rule="evenodd"/><g filter="url(#fx2)" transform="matrix(3.99865 0 0 3.99951 11474 1402)"><g clip-path="url(#clip6)"><path d="M20.9368 114.623C20.9368 62.9822 62.8093 21.1188 114.462 21.1188L1367.58 21.1188C1419.23 21.1188 1461.11 62.9822 1461.11 114.623L1461.11 1928.38C1461.11 1980.02 1419.23 2021.88 1367.58 2021.88L114.462 2021.88C62.8093 2021.88 20.9368 1980.02 20.9368 1928.38Z" fill="#FFFFFF" fill-rule="evenodd"/></g></g><path d="M11637 1966.08C11637 1765.56 11799.6 1603 12000.1 1603L16864.9 1603C17065.4 1603 17228 1765.56 17228 1966.08L17228 9008.92C17228 9209.44 17065.4 9372 16864.9 9372L12000.1 9372C11799.6 9372 11637 9209.44 11637 9008.92Z" fill="#FFFFFF" fill-rule="evenodd"/><path d="M12017.4 1603 16847.6 1603C17057.7 1603 17228 1773.29 17228 1983.36L17228 2655 11637 2655 11637 1983.36C11637 1773.29 11807.3 1603 12017.4 1603Z" fill="#009669" fill-rule="evenodd"/><text fill="#FFFFFF" font-family="Segoe UI,Segoe UI_MSFontService,sans-serif" font-weight="700" font-size="183" transform="matrix(1 0 0 1 12787 1995)">RUN THIRD</text><text fill="#FFFFFF" font-family="Segoe UI,Segoe UI_MSFontService,sans-serif" font-weight="700" font-size="275" transform="matrix(1 0 0 1 12787 2363)">Evaluation Model</text><path d="M11937 2123C11937 1972.23 12059.5 1850 12210.5 1850 12361.5 1850 12484 1972.23 12484 2123 12484 2273.77 12361.5 2396 12210.5 2396 12059.5 2396 11937 2273.77 11937 2123Z" fill="#FFFFFF" fill-rule="evenodd" fill-opacity="0.34902"/><text fill="#FFFFFF" font-family="Microsoft YaHei,Microsoft YaHei_MSFontService,sans-serif" font-weight="700" font-size="275" transform="matrix(1 0 0 1 12125.6 2221)">3</text><text fill="#7F7F7F" font-family="Segoe UI Variable Display Semibold,Segoe UI Variable Display Semibold_MSFontService,sans-serif" font-weight="600" font-size="202" transform="matrix(1 0 0 1 12161 3113)">LOAD BOTH TABLES</text><text fill="#7F7F7F" font-family="Segoe UI Variable Display Semibold,Segoe UI Variable Display Semibold_MSFontService,sans-serif" font-weight="600" font-size="202" transform="matrix(1 0 0 1 13952.5 3113)"> </text><text fill="#7F7F7F" font-family="Segoe UI Variable Display Semibold,Segoe UI Variable Display Semibold_MSFontService,sans-serif" font-weight="600" font-size="202" transform="matrix(1 0 0 1 12161 4482)">INDEX VALIDATION</text><text fill="#7F7F7F" font-family="Segoe UI Variable Display Semibold,Segoe UI Variable Display Semibold_MSFontService,sans-serif" font-weight="600" font-size="202" transform="matrix(1 0 0 1 13915.9 4482)"> </text><text fill="#7F7F7F" font-family="Segoe UI Variable Display Semibold,Segoe UI Variable Display Semibold_MSFontService,sans-serif" font-weight="600" font-size="202" transform="matrix(1 0 0 1 12161 8048)">OUTPUT</text><text fill="#7F7F7F" font-family="Segoe UI Variable Display Semibold,Segoe UI Variable Display Semibold_MSFontService,sans-serif" font-weight="600" font-size="202" transform="matrix(1 0 0 1 12927 8048)"> </text><path d="M12104.5 8390.7C12104.5 8315.48 12165.5 8254.5 12240.7 8254.5L16577.3 8254.5C16652.5 8254.5 16713.5 8315.48 16713.5 8390.7L16713.5 8899.3C16713.5 8974.52 16652.5 9035.5 16577.3 9035.5L12240.7 9035.5C12165.5 9035.5 12104.5 8974.52 12104.5 8899.3Z" stroke="#A1DE8E" stroke-width="17.1875" stroke-miterlimit="8" fill="#E4F5DF" fill-rule="evenodd"/><text fill="#404040" font-family="Segoe UI,Segoe UI_MSFontService,sans-serif" font-weight="700" font-size="220" transform="matrix(1 0 0 1 12358.6 8725)">Model weights · Loss · Attention matrix</text><path d="M12104.5 3439.7C12104.5 3364.48 12165.5 3303.5 12240.7 3303.5L16577.3 3303.5C16652.5 3303.5 16713.5 3364.48 16713.5 3439.7L16713.5 3948.3C16713.5 4023.52 16652.5 4084.5 16577.3 4084.5L12240.7 4084.5C12165.5 4084.5 12104.5 4023.52 12104.5 3948.3Z" stroke="#B7E5A9" stroke-width="17.1875" stroke-miterlimit="8" fill="#ECF8E8" fill-rule="evenodd"/><text fill="#262626" font-family="Consolas,Consolas_MSFontService,sans-serif" font-weight="700" font-size="183" transform="matrix(1 0 0 1 12291.5 3913)">evaluation_score.csv</text><text fill="#262626" font-family="Consolas,Consolas_MSFontService,sans-serif" font-weight="700" font-size="183" transform="matrix(1 0 0 1 12291.5 3598)">metrics.csv</text><path d="M12104.5 4836.85C12104.5 4746.64 12177.6 4673.5 12267.9 4673.5L16550.1 4673.5C16640.4 4673.5 16713.5 4746.64 16713.5 4836.85L16713.5 5737.15C16713.5 5827.37 16640.4 5900.5 16550.1 5900.5L12267.9 5900.5C12177.6 5900.5 12104.5 5827.37 12104.5 5737.15Z" stroke="#FFC681" stroke-width="17.1875" stroke-miterlimit="8" fill="#FFF7ED" fill-rule="evenodd"/><text fill="#404040" font-family="Segoe UI,Segoe UI_MSFontService,sans-serif" font-weight="700" font-size="202" transform="matrix(1 0 0 1 12291.5 5047)">1. Validate required index columns</text><text fill="#404040" font-family="Segoe UI,Segoe UI_MSFontService,sans-serif" font-weight="700" font-size="202" transform="matrix(1 0 0 1 12291.5 5386)">2. Reject invalid or duplicate indexes</text><text fill="#404040" font-family="Segoe UI,Segoe UI_MSFontService,sans-serif" font-weight="700" font-size="202" transform="matrix(1 0 0 1 12291.5 5725)">3. Require an exact index</text><text fill="#404040" font-family="Segoe UI,Segoe UI_MSFontService,sans-serif" font-weight="700" font-size="202" transform="matrix(1 0 0 1 14670.2 5725)">-</text><text fill="#404040" font-family="Segoe UI,Segoe UI_MSFontService,sans-serif" font-weight="700" font-size="202" transform="matrix(1 0 0 1 14751.6 5725)">set match</text><path d="M12104.5 6328.66C12104.5 6254.57 12164.6 6194.5 12238.7 6194.5L16579.3 6194.5C16653.4 6194.5 16713.5 6254.57 16713.5 6328.66L16713.5 6772.34C16713.5 6846.43 16653.4 6906.5 16579.3 6906.5L12238.7 6906.5C12164.6 6906.5 12104.5 6846.43 12104.5 6772.34Z" stroke="#B7E5A9" stroke-width="17.1875" stroke-miterlimit="8" fill="#ECF8E8" fill-rule="evenodd"/><text fill="#262626" font-family="Segoe UI,Segoe UI_MSFontService,sans-serif" font-weight="700" font-size="202" transform="matrix(1 0 0 1 13097.1 6464)">One</text><text fill="#262626" font-family="Segoe UI,Segoe UI_MSFontService,sans-serif" font-weight="700" font-size="202" transform="matrix(1 0 0 1 13480.9 6464)">-</text><text fill="#262626" font-family="Segoe UI,Segoe UI_MSFontService,sans-serif" font-weight="700" font-size="202" transform="matrix(1 0 0 1 13562.3 6464)">to</text><text fill="#262626" font-family="Segoe UI,Segoe UI_MSFontService,sans-serif" font-weight="700" font-size="202" transform="matrix(1 0 0 1 13763.1 6464)">-</text><text fill="#262626" font-family="Segoe UI,Segoe UI_MSFontService,sans-serif" font-weight="700" font-size="202" transform="matrix(1 0 0 1 13844.5 6464)">one merge on index</text><text fill="#7F7F7F" font-family="Segoe UI,Segoe UI_MSFontService,sans-serif" font-weight="700" font-size="165" transform="matrix(1 0 0 1 13400.6 6770)">10 features + 1 score label</text><path d="M12104 7313.68C12104 7250.34 12155.3 7199 12218.7 7199L16598.3 7199C16661.7 7199 16713 7250.34 16713 7313.68L16713 7627.32C16713 7690.66 16661.7 7742 16598.3 7742L12218.7 7742C12155.3 7742 12104 7690.66 12104 7627.32Z" fill="#F1F5F9" fill-rule="evenodd"/><text fill="#262626" font-family="Consolas,Consolas_MSFontService,sans-serif" font-weight="700" font-size="183" transform="matrix(1 0 0 1 13135.7 7532)">train_evaluation_model.py</text><path d="M14556 5957 14432.5 6133 14309 5957Z" fill="#313D5D" fill-rule="evenodd"/><path d="M14556 6982 14432.5 7158 14309 6982Z" fill="#313D5D" fill-rule="evenodd"/><text fill="#7F7F7F" font-family="Segoe UI Variable Display Semibold,Segoe UI Variable Display Semibold_MSFontService,sans-serif" font-weight="600" font-size="202" transform="matrix(1 0 0 1 3197.99 1239)">Run the three modules in order; use the shared index to align objective metrics and subjective scores.</text><text fill="#7F7F7F" font-family="Segoe UI Variable Display Semibold,Segoe UI Variable Display Semibold_MSFontService,sans-serif" font-weight="600" font-size="202" transform="matrix(1 0 0 1 12401.3 1239)"> </text><path d="M4142 2022.75 4477 2022.75 4477 1784 4812 2261.5 4477 2739 4477 2500.25 4142 2500.25Z" fill="#2663EB" fill-rule="evenodd"/><path d="M10779 1938.75 11114 1938.75 11114 1700 11449 2177.5 11114 2655 11114 2416.25 10779 2416.25Z" fill="#7C3BED" fill-rule="evenodd"/><path d="M1175.19 9011.65 1175.19 9114.77 1140.81 9114.77 1140.81 9011.65ZM1175.19 9149.15 1175.19 9252.27 1140.81 9252.27 1140.81 9149.15ZM1175.19 9286.65 1175.19 9389.77 1140.81 9389.77 1140.81 9286.65ZM1175.19 9424.15 1175.19 9527.27 1140.81 9527.27 1140.81 9424.15ZM1175.19 9561.65 1175.19 9664.77 1140.81 9664.77 1140.81 9561.65ZM1175.19 9699.15 1175.19 9802.27 1140.81 9802.27 1140.81 9699.15ZM1165.96 9811.5 1269.09 9811.5 1269.09 9845.87 1165.96 9845.87ZM1303.46 9811.5 1406.59 9811.5 1406.59 9845.87 1303.46 9845.87ZM1440.96 9811.5 1544.09 9811.5 1544.09 9845.87 1440.96 9845.87ZM1578.46 9811.5 1681.59 9811.5 1681.59 9845.87 1578.46 9845.87ZM1715.96 9811.5 1819.09 9811.5 1819.09 9845.87 1715.96 9845.87ZM1853.46 9811.5 1956.59 9811.5 1956.59 9845.87 1853.46 9845.87ZM1990.96 9811.5 2094.09 9811.5 2094.09 9845.87 1990.96 9845.87ZM2128.46 9811.5 2231.59 9811.5 2231.59 9845.87 2128.46 9845.87ZM2265.96 9811.5 2369.09 9811.5 2369.09 9845.87 2265.96 9845.87ZM2403.46 9811.5 2506.59 9811.5 2506.59 9845.87 2403.46 9845.87ZM2540.96 9811.5 2644.09 9811.5 2644.09 9845.87 2540.96 9845.87ZM2678.46 9811.5 2781.59 9811.5 2781.59 9845.87 2678.46 9845.87ZM2815.96 9811.5 2919.09 9811.5 2919.09 9845.87 2815.96 9845.87ZM2953.46 9811.5 3056.59 9811.5 3056.59 9845.87 2953.46 9845.87ZM3090.96 9811.5 3194.09 9811.5 3194.09 9845.87 3090.96 9845.87ZM3228.46 9811.5 3331.59 9811.5 3331.59 9845.87 3228.46 9845.87ZM3365.96 9811.5 3469.09 9811.5 3469.09 9845.87 3365.96 9845.87ZM3503.46 9811.5 3606.59 9811.5 3606.59 9845.87 3503.46 9845.87ZM3640.96 9811.5 3744.09 9811.5 3744.09 9845.87 3640.96 9845.87ZM3778.46 9811.5 3881.59 9811.5 3881.59 9845.87 3778.46 9845.87ZM3915.96 9811.5 4019.09 9811.5 4019.09 9845.87 3915.96 9845.87ZM4053.46 9811.5 4156.59 9811.5 4156.59 9845.87 4053.46 9845.87ZM4190.96 9811.5 4294.09 9811.5 4294.09 9845.87 4190.96 9845.87ZM4328.46 9811.5 4431.59 9811.5 4431.59 9845.87 4328.46 9845.87ZM4465.96 9811.5 4569.09 9811.5 4569.09 9845.87 4465.96 9845.87ZM4603.46 9811.5 4706.59 9811.5 4706.59 9845.87 4603.46 9845.87ZM4740.96 9811.5 4844.09 9811.5 4844.09 9845.87 4740.96 9845.87ZM4878.46 9811.5 4981.59 9811.5 4981.59 9845.87 4878.46 9845.87ZM5015.96 9811.5 5119.09 9811.5 5119.09 9845.87 5015.96 9845.87ZM5153.46 9811.5 5256.59 9811.5 5256.59 9845.87 5153.46 9845.87ZM5290.96 9811.5 5394.09 9811.5 5394.09 9845.87 5290.96 9845.87ZM5428.46 9811.5 5531.59 9811.5 5531.59 9845.87 5428.46 9845.87ZM5565.96 9811.5 5669.09 9811.5 5669.09 9845.87 5565.96 9845.87ZM5703.46 9811.5 5806.59 9811.5 5806.59 9845.87 5703.46 9845.87ZM5840.96 9811.5 5944.09 9811.5 5944.09 9845.87 5840.96 9845.87ZM5978.46 9811.5 6081.59 9811.5 6081.59 9845.87 5978.46 9845.87ZM6115.96 9811.5 6219.09 9811.5 6219.09 9845.87 6115.96 9845.87ZM6253.46 9811.5 6356.59 9811.5 6356.59 9845.87 6253.46 9845.87ZM6390.96 9811.5 6494.09 9811.5 6494.09 9845.87 6390.96 9845.87ZM6528.46 9811.5 6631.59 9811.5 6631.59 9845.87 6528.46 9845.87ZM6665.96 9811.5 6769.09 9811.5 6769.09 9845.87 6665.96 9845.87ZM6803.46 9811.5 6906.59 9811.5 6906.59 9845.87 6803.46 9845.87ZM6940.96 9811.5 7044.09 9811.5 7044.09 9845.87 6940.96 9845.87ZM7078.46 9811.5 7181.59 9811.5 7181.59 9845.87 7078.46 9845.87ZM7215.96 9811.5 7319.09 9811.5 7319.09 9845.87 7215.96 9845.87ZM7353.46 9811.5 7456.59 9811.5 7456.59 9845.87 7353.46 9845.87ZM7490.96 9811.5 7594.09 9811.5 7594.09 9845.87 7490.96 9845.87ZM7628.46 9811.5 7731.59 9811.5 7731.59 9845.87 7628.46 9845.87ZM7765.96 9811.5 7869.09 9811.5 7869.09 9845.87 7765.96 9845.87ZM7903.46 9811.5 8006.59 9811.5 8006.59 9845.87 7903.46 9845.87ZM8040.96 9811.5 8144.09 9811.5 8144.09 9845.87 8040.96 9845.87ZM8178.46 9811.5 8281.59 9811.5 8281.59 9845.87 8178.46 9845.87ZM8315.96 9811.5 8419.09 9811.5 8419.09 9845.87 8315.96 9845.87ZM8453.46 9811.5 8556.59 9811.5 8556.59 9845.87 8453.46 9845.87ZM8590.96 9811.5 8694.09 9811.5 8694.09 9845.87 8590.96 9845.87ZM8728.46 9811.5 8831.59 9811.5 8831.59 9845.87 8728.46 9845.87ZM8865.96 9811.5 8969.09 9811.5 8969.09 9845.87 8865.96 9845.87ZM9003.46 9811.5 9106.59 9811.5 9106.59 9845.87 9003.46 9845.87ZM9140.96 9811.5 9244.09 9811.5 9244.09 9845.87 9140.96 9845.87ZM9278.46 9811.5 9381.59 9811.5 9381.59 9845.87 9278.46 9845.87ZM9415.96 9811.5 9519.09 9811.5 9519.09 9845.87 9415.96 9845.87ZM9553.46 9811.5 9656.59 9811.5 9656.59 9845.87 9553.46 9845.87ZM9690.96 9811.5 9794.09 9811.5 9794.09 9845.87 9690.96 9845.87ZM9828.46 9811.5 9931.59 9811.5 9931.59 9845.87 9828.46 9845.87ZM9965.96 9811.5 10069.1 9811.5 10069.1 9845.87 9965.96 9845.87ZM10103.5 9811.5 10206.6 9811.5 10206.6 9845.87 10103.5 9845.87ZM10241 9811.5 10344.1 9811.5 10344.1 9845.87 10241 9845.87ZM10378.5 9811.5 10481.6 9811.5 10481.6 9845.87 10378.5 9845.87ZM10516 9811.5 10619.1 9811.5 10619.1 9845.87 10516 9845.87ZM10653.5 9811.5 10756.6 9811.5 10756.6 9845.87 10653.5 9845.87ZM10791 9811.5 10894.1 9811.5 10894.1 9845.87 10791 9845.87ZM10896.1 9813.5 10896.1 9710.37 10930.5 9710.37 10930.5 9813.5ZM10896.1 9676 10896.1 9572.87 10930.5 9572.87 10930.5 9676ZM10896.1 9538.5 10896.1 9435.37 10930.5 9435.37 10930.5 9538.5ZM10896.1 9401 10896.1 9297.87 10930.5 9297.87 10930.5 9401ZM10896.1 9263.5 10896.1 9160.37 10930.5 9160.37 10930.5 9263.5ZM10896.1 9126 10896.1 9022.87 10930.5 9022.87 10930.5 9126ZM10896.1 8988.5 10896.1 8885.37 10930.5 8885.37 10930.5 8988.5ZM10896.1 8851 10896.1 8747.87 10930.5 8747.87 10930.5 8851ZM10896.1 8713.5 10896.1 8610.37 10930.5 8610.37 10930.5 8713.5ZM10896.1 8576 10896.1 8472.87 10930.5 8472.87 10930.5 8576ZM10896.1 8438.5 10896.1 8335.37 10930.5 8335.37 10930.5 8438.5ZM10896.1 8301 10896.1 8197.87 10930.5 8197.87 10930.5 8301ZM10896.1 8163.5 10896.1 8060.37 10930.5 8060.37 10930.5 8163.5ZM10896.1 8026 10896.1 7922.87 10930.5 7922.87 10930.5 8026ZM10896.1 7888.5 10896.1 7785.37 10930.5 7785.37 10930.5 7888.5ZM10896.1 7751 10896.1 7647.87 10930.5 7647.87 10930.5 7751ZM10896.1 7613.5 10896.1 7510.37 10930.5 7510.37 10930.5 7613.5ZM10896.1 7476 10896.1 7372.87 10930.5 7372.87 10930.5 7476ZM10896.1 7338.5 10896.1 7235.37 10930.5 7235.37 10930.5 7338.5ZM10896.1 7201 10896.1 7097.87 10930.5 7097.87 10930.5 7201ZM10896.1 7063.5 10896.1 6960.37 10930.5 6960.37 10930.5 7063.5ZM10896.1 6926 10896.1 6822.87 10930.5 6822.87 10930.5 6926ZM10896.1 6788.5 10896.1 6685.37 10930.5 6685.37 10930.5 6788.5ZM10896.1 6651 10896.1 6547.87 10930.5 6547.87 10930.5 6651ZM10896.1 6513.5 10896.1 6410.37 10930.5 6410.37 10930.5 6513.5ZM10896.1 6376 10896.1 6272.87 10930.5 6272.87 10930.5 6376ZM10896.1 6238.5 10896.1 6135.37 10930.5 6135.37 10930.5 6238.5ZM10896.1 6101 10896.1 5997.87 10930.5 5997.87 10930.5 6101ZM10896.1 5963.5 10896.1 5860.37 10930.5 5860.37 10930.5 5963.5ZM10896.1 5826 10896.1 5722.87 10930.5 5722.87 10930.5 5826ZM10896.1 5688.5 10896.1 5585.37 10930.5 5585.37 10930.5 5688.5ZM10896.1 5551 10896.1 5447.87 10930.5 5447.87 10930.5 5551ZM10896.1 5413.5 10896.1 5310.37 10930.5 5310.37 10930.5 5413.5ZM10896.1 5276 10896.1 5172.87 10930.5 5172.87 10930.5 5276ZM10896.1 5138.5 10896.1 5035.37 10930.5 5035.37 10930.5 5138.5ZM10896.1 5001 10896.1 4897.87 10930.5 4897.87 10930.5 5001ZM10896.1 4863.5 10896.1 4760.37 10930.5 4760.37 10930.5 4863.5ZM10896.1 4726 10896.1 4622.87 10930.5 4622.87 10930.5 4726ZM10896.1 4588.5 10896.1 4485.37 10930.5 4485.37 10930.5 4588.5ZM10896.1 4451 10896.1 4347.87 10930.5 4347.87 10930.5 4451ZM10896.1 4313.5 10896.1 4210.37 10930.5 4210.37 10930.5 4313.5ZM10896.1 4176 10896.1 4072.87 10930.5 4072.87 10930.5 4176ZM10896.1 4038.5 10896.1 3935.37 10930.5 3935.37 10930.5 4038.5ZM10896.1 3901 10896.1 3797.87 10930.5 3797.87 10930.5 3901ZM10896.1 3763.5 10896.1 3660.37 10930.5 3660.37 10930.5 3763.5ZM10896.1 3626 10896.1 3519.81 10927.4 3519.81 10927.4 3554.19 10913.3 3554.19 10930.5 3537 10930.5 3626ZM10961.8 3519.81 11064.9 3519.81 11064.9 3554.19 10961.8 3554.19ZM11099.3 3519.81 11202.4 3519.81 11202.4 3554.19 11099.3 3554.19ZM11236.8 3519.81 11339.9 3519.81 11339.9 3554.19 11236.8 3554.19ZM11374.3 3519.81 11477.4 3519.81 11477.4 3554.19 11374.3 3554.19ZM11511.8 3519.81 11614.9 3519.81 11614.9 3554.19 11511.8 3554.19ZM11649.3 3519.81 11752.4 3519.81 11752.4 3554.19 11649.3 3554.19ZM11786.8 3519.81 11889.9 3519.81 11889.9 3554.19 11786.8 3554.19ZM11924.3 3519.81 11950.3 3519.81 11950.3 3554.19 11924.3 3554.19ZM11933.1 3451.06 12105 3537 11933.1 3622.94Z" fill="#2663EB"/><path d="M7812.19 9011.33 7812.19 9114.46 7777.81 9114.46 7777.81 9011.33ZM7812.19 9148.83 7812.19 9251.96 7777.81 9251.96 7777.81 9148.83ZM7812.19 9286.33 7812.19 9389.46 7777.81 9389.46 7777.81 9286.33ZM7812.19 9423.83 7812.19 9526.96 7777.81 9526.96 7777.81 9423.83ZM7812.19 9561.33 7812.19 9664.46 7777.81 9664.46 7777.81 9561.33ZM7812.19 9698.83 7812.19 9801.96 7777.81 9801.96 7777.81 9698.83ZM7803 9811.15 7906.12 9811.15 7906.12 9845.52 7803 9845.52ZM7940.5 9811.15 8043.62 9811.15 8043.62 9845.52 7940.5 9845.52ZM8078 9811.15 8181.12 9811.15 8181.12 9845.52 8078 9845.52ZM8215.5 9811.15 8318.62 9811.15 8318.62 9845.52 8215.5 9845.52ZM8353 9811.15 8456.12 9811.15 8456.12 9845.52 8353 9845.52ZM8490.5 9811.15 8593.62 9811.15 8593.62 9845.52 8490.5 9845.52ZM8628 9811.15 8731.12 9811.15 8731.12 9845.52 8628 9845.52ZM8765.5 9811.15 8868.62 9811.15 8868.62 9845.52 8765.5 9845.52ZM8903 9811.15 9006.12 9811.15 9006.12 9845.52 8903 9845.52ZM9040.5 9811.15 9143.62 9811.15 9143.62 9845.52 9040.5 9845.52ZM9178 9811.15 9281.12 9811.15 9281.12 9845.52 9178 9845.52ZM9315.5 9811.15 9418.62 9811.15 9418.62 9845.52 9315.5 9845.52ZM9453 9811.15 9556.12 9811.15 9556.12 9845.52 9453 9845.52ZM9590.5 9811.15 9693.62 9811.15 9693.62 9845.52 9590.5 9845.52ZM9728 9811.15 9831.12 9811.15 9831.12 9845.52 9728 9845.52ZM9865.5 9811.15 9968.62 9811.15 9968.62 9845.52 9865.5 9845.52ZM10003 9811.15 10106.1 9811.15 10106.1 9845.52 10003 9845.52ZM10140.5 9811.15 10243.6 9811.15 10243.6 9845.52 10140.5 9845.52ZM10278 9811.15 10381.1 9811.15 10381.1 9845.52 10278 9845.52ZM10415.5 9811.15 10518.6 9811.15 10518.6 9845.52 10415.5 9845.52ZM10553 9811.15 10656.1 9811.15 10656.1 9845.52 10553 9845.52ZM10690.5 9811.15 10793.6 9811.15 10793.6 9845.52 10690.5 9845.52ZM10828 9811.15 10931.1 9811.15 10931.1 9845.52 10828 9845.52ZM10965.5 9811.15 11068.6 9811.15 11068.6 9845.52 10965.5 9845.52ZM11103 9811.15 11206.1 9811.15 11206.1 9845.52 11103 9845.52ZM11240.5 9811.15 11305.2 9811.15 11288 9828.33 11288 9789.92 11322.4 9789.92 11322.4 9845.52 11240.5 9845.52ZM11288 9755.54 11288 9652.42 11322.4 9652.42 11322.4 9755.54ZM11288 9618.04 11288 9514.92 11322.4 9514.92 11322.4 9618.04ZM11288 9480.54 11288 9377.42 11322.4 9377.42 11322.4 9480.54ZM11288 9343.04 11288 9239.92 11322.4 9239.92 11322.4 9343.04ZM11288 9205.54 11288 9102.42 11322.4 9102.42 11322.4 9205.54ZM11288 9068.04 11288 8964.92 11322.4 8964.92 11322.4 9068.04ZM11288 8930.54 11288 8827.42 11322.4 8827.42 11322.4 8930.54ZM11288 8793.04 11288 8689.92 11322.4 8689.92 11322.4 8793.04ZM11288 8655.54 11288 8552.42 11322.4 8552.42 11322.4 8655.54ZM11288 8518.04 11288 8414.92 11322.4 8414.92 11322.4 8518.04ZM11288 8380.54 11288 8277.42 11322.4 8277.42 11322.4 8380.54ZM11288 8243.04 11288 8139.92 11322.4 8139.92 11322.4 8243.04ZM11288 8105.54 11288 8002.42 11322.4 8002.42 11322.4 8105.54ZM11288 7968.04 11288 7864.92 11322.4 7864.92 11322.4 7968.04ZM11288 7830.54 11288 7727.42 11322.4 7727.42 11322.4 7830.54ZM11288 7693.04 11288 7589.92 11322.4 7589.92 11322.4 7693.04ZM11288 7555.54 11288 7452.42 11322.4 7452.42 11322.4 7555.54ZM11288 7418.04 11288 7314.92 11322.4 7314.92 11322.4 7418.04ZM11288 7280.54 11288 7177.42 11322.4 7177.42 11322.4 7280.54ZM11288 7143.04 11288 7039.92 11322.4 7039.92 11322.4 7143.04ZM11288 7005.54 11288 6902.42 11322.4 6902.42 11322.4 7005.54ZM11288 6868.04 11288 6764.92 11322.4 6764.92 11322.4 6868.04ZM11288 6730.54 11288 6627.42 11322.4 6627.42 11322.4 6730.54ZM11288 6593.04 11288 6489.92 11322.4 6489.92 11322.4 6593.04ZM11288 6455.54 11288 6352.42 11322.4 6352.42 11322.4 6455.54ZM11288 6318.04 11288 6214.92 11322.4 6214.92 11322.4 6318.04ZM11288 6180.54 11288 6077.42 11322.4 6077.42 11322.4 6180.54ZM11288 6043.04 11288 5939.92 11322.4 5939.92 11322.4 6043.04ZM11288 5905.54 11288 5802.42 11322.4 5802.42 11322.4 5905.54ZM11288 5768.04 11288 5664.92 11322.4 5664.92 11322.4 5768.04ZM11288 5630.54 11288 5527.42 11322.4 5527.42 11322.4 5630.54ZM11288 5493.04 11288 5389.92 11322.4 5389.92 11322.4 5493.04ZM11288 5355.54 11288 5252.42 11322.4 5252.42 11322.4 5355.54ZM11288 5218.04 11288 5114.92 11322.4 5114.92 11322.4 5218.04ZM11288 5080.54 11288 4977.42 11322.4 4977.42 11322.4 5080.54ZM11288 4943.04 11288 4839.92 11322.4 4839.92 11322.4 4943.04ZM11288 4805.54 11288 4702.42 11322.4 4702.42 11322.4 4805.54ZM11288 4668.04 11288 4564.92 11322.4 4564.92 11322.4 4668.04ZM11288 4530.54 11288 4427.42 11322.4 4427.42 11322.4 4530.54ZM11288 4393.04 11288 4289.92 11322.4 4289.92 11322.4 4393.04ZM11288 4255.54 11288 4152.42 11322.4 4152.42 11322.4 4255.54ZM11288 4118.04 11288 4014.92 11322.4 4014.92 11322.4 4118.04ZM11288 3980.54 11288 3877.42 11322.4 3877.42 11322.4 3980.54ZM11321.2 3841.81 11424.3 3841.81 11424.3 3876.19 11321.2 3876.19ZM11458.7 3841.81 11561.8 3841.81 11561.8 3876.19 11458.7 3876.19ZM11596.2 3841.81 11699.3 3841.81 11699.3 3876.19 11596.2 3876.19ZM11733.7 3841.81 11836.8 3841.81 11836.8 3876.19 11733.7 3876.19ZM11871.2 3841.81 11951.9 3841.81 11951.9 3876.19 11871.2 3876.19ZM11934.7 3773.06 12106.6 3859 11934.7 3944.94Z" fill="#7C3BED"/><path d="M1804 10392C1804 10278.8 1895.77 10187 2008.97 10187L13581 10187C13694.2 10187 13786 10278.8 13786 10392L13786 10763C13786 10876.2 13694.2 10968 13581 10968L2008.97 10968C1895.77 10968 1804 10876.2 1804 10763Z" stroke="#DFE6ED" stroke-width="18.3333" stroke-miterlimit="8" fill="#FFFFFF" fill-rule="evenodd"/><text fill="#3F4771" font-family="Microsoft YaHei,Microsoft YaHei_MSFontService,sans-serif" font-weight="400" font-size="220" transform="matrix(1 0 0 1 3020.3 10656)">Shared key: the same unique index must identify the same interaction in both CSV files.</text><path d="M2297 10577.5C2297 10456.8 2394.6 10359 2515 10359 2635.4 10359 2733 10456.8 2733 10577.5 2733 10698.2 2635.4 10796 2515 10796 2394.6 10796 2297 10698.2 2297 10577.5Z" fill-rule="evenodd"/><text fill="#FFFFFF" font-family="Microsoft YaHei,Microsoft YaHei_MSFontService,sans-serif" font-weight="700" font-size="248" transform="matrix(1 0 0 1 2478.37 10665)">i</text></g></svg>